<svg width="48" height="48" viewBox="0 0 48 48" fill="none" xmlns="http://www.w3.org/2000/svg">
<path fill-rule="evenodd" clip-rule="evenodd" d="M25.1959 12.9774C26.3576 13.67 26.7379 15.1731 26.0454 16.3349L14.658 35.4363C13.9654 36.598 12.4622 36.9783 11.3005 36.2858C10.1388 35.5932 9.75846 34.09 10.451 32.9283L21.8384 13.8269C22.531 12.6652 24.0342 12.2848 25.1959 12.9774Z" fill="url(#paint0_linear_56_442)"/>
<path fill-rule="evenodd" clip-rule="evenodd" d="M22.6931 12.9744C21.5297 13.6642 21.1458 15.1665 21.8356 16.3299L33.1618 35.4313C33.8516 36.5947 35.3539 36.9786 36.5173 36.2887C37.6806 35.5989 38.0645 34.0967 37.3747 32.9333L26.0485 13.8319C25.3587 12.6685 23.8564 12.2846 22.6931 12.9744Z" fill="url(#paint1_linear_56_442)"/>
<path d="M23.299 27.3182C23.4835 26.7569 24.2775 26.7569 24.4621 27.3182L24.9809 28.8957C25.0417 29.0804 25.1865 29.2253 25.3712 29.286L26.9488 29.8048C27.51 29.9894 27.51 30.7834 26.9488 30.968L25.3712 31.4868C25.1865 31.5475 25.0417 31.6924 24.9809 31.8771L24.4621 33.4546C24.2775 34.0159 23.4835 34.0159 23.299 33.4546L22.7801 31.8771C22.7194 31.6924 22.5745 31.5475 22.3898 31.4868L20.8123 30.968C20.251 30.7834 20.251 29.9894 20.8123 29.8048L22.3898 29.286C22.5745 29.2253 22.7194 29.0804 22.7801 28.8957L23.299 27.3182Z" fill="white"/>
<defs>
<linearGradient id="paint0_linear_56_442" x1="23.9419" y1="15.0809" x2="12.5545" y2="34.1823" gradientUnits="userSpaceOnUse">
<stop stop-color="#EF28FB"/>
<stop offset="1" stop-color="#FD93C4"/>
</linearGradient>
<linearGradient id="paint1_linear_56_442" x1="23.9421" y1="15.0809" x2="37.8275" y2="38.3408" gradientUnits="userSpaceOnUse">
<stop stop-color="#01F9FF" stop-opacity="0.96"/>
<stop offset="1" stop-color="#01A4FF"/>
</linearGradient>
</defs>
</svg>
